/* XPM */
static char * 113_xpm[] = {
"32 32 29 1",
" 	c None",
".	c #FFB100",
"+	c #FFB700",
"@	c #FFBD00",
"#	c #FFC100",
"$	c #FFB400",
"%	c #FFC400",
"&	c #FFDA00",
"*	c #FFEA00",
"=	c #FFF100",
"-	c #FFE900",
";	c #FFD900",
">	c #FFC300",
",	c #FFB300",
"'	c #FFCC00",
")	c #FFF200",
"!	c #FFE800",
"~	c #FFCA00",
"{	c #FFB200",
"]	c #FFC500",
"^	c #FFC200",
"/	c #FFDB00",
"(	c #FFD800",
"_	c #FFBE00",
":	c #FFEB00",
"<	c #FFF000",
"[	c #FFC000",
"}	c #FFEC00",
"|	c #FFB800",
"               ..               ",
"               ..               ",
"        ..     ..     ..        ",
"       ...     ..     ...       ",
"        ...    ..    ...        ",
"        ...          ...        ",
"         .            .         ",
"   .         ......         .   ",
"  ....     ..........     ....  ",
"  .....   ...+@##@+...   .....  ",
"    ..   ..$%&*==-;>,..   ..    ",
"        ..$'-)====)!~,..        ",
"        .{]*)======)!^..        ",
"       ..+/)=========(+..       ",
"       .._:==========!@..       ",
".....  ..^===========<[..  .....",
".....  ..^===========<[..  .....",
"       .._}==========!@..       ",
"       ..|/)========)(+..       ",
"        .{]*)======)!>..        ",
"        ..$'-)====)-~,..        ",
"    ..   ..$%&*==*;>$..   ..    ",
"  .....   ..{+_^#@+...   .....  ",
"  ....     ..........     ....  ",
"   .         ......         .   ",
"         .            .         ",
"        ...          ...        ",
"        ...    ..    ...        ",
"       ...     ..     ...       ",
"        ..     ..     ..        ",
"               ..               ",
"               ..               "};
