/* XPM */
static char * 116_xpm[] = {
"32 32 82 1",
" 	c None",
".	c #FFB100",
"+	c #D1D2D3",
"@	c #FFB300",
"#	c #FFBD00",
"$	c #FFB800",
"%	c #FFB000",
"&	c #D0D1D2",
"*	c #D5D6D7",
"=	c #D7D8D9",
"-	c #FFD100",
";	c #FFEF00",
">	c #FFF100",
",	c #FFE000",
"'	c #FFBA00",
")	c #EBC07D",
"!	c #D2D3D4",
"~	c #E3E3E4",
"{	c #F9F9F9",
"]	c #FFFFFF",
"^	c #FEFEFE",
"/	c #EDEDEE",
"(	c #D7D8D8",
"_	c #FFD700",
":	c #FFEB00",
"<	c #FBB81C",
"[	c #D4D0CA",
"}	c #F2F2F3",
"|	c #FCFCFC",
"1	c #DADBDC",
"2	c #FFBB00",
"3	c #F4EA40",
"4	c #EAE37A",
"5	c #DFD5AA",
"6	c #EDEEEF",
"7	c #FAFAFA",
"8	c #D3D4D5",
"9	c #FFCC00",
"0	c #F3E961",
"a	c #D9D7B5",
"b	c #D0D1D4",
"c	c #D0D1D3",
"d	c #D6D7D8",
"e	c #FCFCFD",
"f	c #E7E7E8",
"g	c #FFCB00",
"h	c #F0E760",
"i	c #D1D2D2",
"j	c #E2E3E4",
"k	c #F3F3F3",
"l	c #F6F6F6",
"m	c #F0F0F1",
"n	c #FFB700",
"o	c #FFF000",
"p	c #FBEE38",
"q	c #D5D4C6",
"r	c #D4D5D6",
"s	c #F7F7F8",
"t	c #FBFBFB",
"u	c #E9E17A",
"v	c #D1D2D4",
"w	c #EFEFEF",
"x	c #FEB200",
"y	c #ECC07D",
"z	c #D3D2CC",
"A	c #FDFDFD",
"B	c #DFE0E1",
"C	c #D4D0CB",
"D	c #E2E3E3",
"E	c #DCDDDE",
"F	c #DCDCDD",
"G	c #F5F5F5",
"H	c #F2F2F2",
"I	c #F8F8F9",
"J	c #F7F7F7",
"K	c #F4F5F5",
"L	c #EAEAEA",
"M	c #DADBDB",
"N	c #D4D4D5",
"O	c #FEFDFD",
"P	c #F4F4F4",
"Q	c #DDDDDE",
"                                ",
"                                ",
"                                ",
"                                ",
"                                ",
"          ..                    ",
"     ..   ..   .                ",
"     ..   .   ..                ",
"      .       .                 ",
"  .     .....      +++++        ",
"  ...  ..@#$%.   ++&*=+++       ",
"   .  .@-;>>,'.)+!~{]]^/(++     ",
"     .._>>>>>:<[!}]]]]]]|1+     ",
"     .2>>>>>345+6]]]]]]]]78+    ",
" ..  .9>>>0abccde]]]]]]]]]f+    ",
" ..  .g>>hi8jklm]]]]]]]]]]{++   ",
"     .nopqrs]]]]]]]]]]]]]]t!+   ",
"     ..-uvw]]]]]]]]]]]]]]]7+++  ",
"   .  xyz!A]]]]]]]]]]]]]]]]7B++ ",
"  ..  Ci*D]]]]]]]]]]]]]]]]]]]E+ ",
"  .   +Ft]]]]]]]]]]]]]]]]]]]]G! ",
"     ++H]]]]]]]]]]]]]]]]]]]]]I8+",
"     ++J]]]]]]]]]]]]]]]]]]]]]K+ ",
"      +L]]]]]]]]]]]]]]]]]]]]^M+ ",
"      +N/e^^^^^^^^^^^^^^^^OPQ++ ",
"       ++&&&&&&&&&&&&&&&&&&+++  ",
"        ++++++++++++++++++++    ",
"                                ",
"                                ",
"                                ",
"                                ",
"                                "};
