/* XPM */
static char * 119_xpm[] = {
"32 32 53 1",
" 	c None",
".	c #D1D2D3",
"+	c #D2D3D4",
"@	c #D9D9DB",
"#	c #DADBDC",
"$	c #D4D5D6",
"%	c #D9DADA",
"&	c #ECEDED",
"*	c #FCFDFD",
"=	c #FFFFFF",
"-	c #FEFEFE",
";	c #F2F2F2",
">	c #DDDDDE",
",	c #E0E0E1",
"'	c #FBFBFB",
")	c #FDFDFD",
"!	c #E8E8E8",
"~	c #DADADB",
"{	c #E4E4E5",
"]	c #D3D4D4",
"^	c #F3F3F4",
"/	c #F9F9F9",
"(	c #D6D7D8",
"_	c #DBDCDC",
":	c #DEDFDF",
"<	c #FBFBFC",
"[	c #E9EAEA",
"}	c #F8F8F9",
"|	c #FCFCFC",
"1	c #E8E9EA",
"2	c #D3D4D5",
"3	c #EFF0F0",
"4	c #EBECEC",
"5	c #E1E1E2",
"6	c #F1F2F2",
"7	c #F7F7F7",
"8	c #D2D2D3",
"9	c #D9D9DA",
"0	c #FAFAFB",
"a	c #DFDFE0",
"b	c #D5D6D7",
"c	c #F5F5F5",
"d	c #F0F0F1",
"e	c #FAFAFA",
"f	c #D7D8D9",
"g	c #D7D7D8",
"h	c #F8F8F8",
"i	c #F3F3F3",
"j	c #EAEBEB",
"k	c #E7E7E7",
"l	c #F9F9FA",
"m	c #EEEEEF",
"n	c #D9DADB",
"                                ",
"                                ",
"                                ",
"                                ",
"                                ",
"                                ",
"                ......          ",
"              ...+@#$...        ",
"             ..%&*==-;>+.       ",
"            ..,'======)!..      ",
"           ..~)========={..     ",
"        ....]^==========/(.     ",
"       ..(#_:<===========,.     ",
"      .+[}|*'============1.     ",
"     .23=================4..    ",
"     .5-=================!...   ",
"    ..6===================7:..  ",
"  ..890====================|a.. ",
"  .b;=======================c2. ",
" .+d========================ef. ",
" .(/========================/g. ",
" .bh========================i+. ",
" ..j=======================e~.  ",
"  .2kl)))))))))))))))))))'mn..  ",
"   ..........................   ",
"    .......................     ",
"                                ",
"                                ",
"                                ",
"                                ",
"                                ",
"                                "};
