/* XPM */
static char * 122_xpm[] = {
"46 46 73 1",
" 	c None",
".	c #929497",
"+	c #96989B",
"@	c #A3A5A8",
"#	c #AAACAE",
"$	c #A8A9AC",
"%	c #9C9EA1",
"&	c #ADAFB1",
"*	c #D1D2D4",
"=	c #E4E5E6",
"-	c #E6E7E8",
";	c #DBDDDE",
">	c #BDBEC0",
",	c #989A9D",
"'	c #9D9FA2",
")	c #D3D4D6",
"!	c #E0E1E2",
"~	c #AFB0B3",
"{	c #A4A6A8",
"]	c #E0E1E3",
"^	c #BABBBD",
"/	c #9A9C9F",
"(	c #DFE0E1",
"_	c #B1B3B5",
":	c #CDCED0",
"<	c #E2E3E4",
"[	c #9B9C9F",
"}	c #C2C3C5",
"|	c #C3C5C7",
"1	c #939598",
"2	c #9EA0A2",
"3	c #BCBDBF",
"4	c #CED0D1",
"5	c #D6D7D8",
"6	c #D1D2D3",
"7	c #C0C1C3",
"8	c #DCDEDF",
"9	c #949699",
"0	c #C2C4C5",
"a	c #E5E6E7",
"b	c #B0B2B4",
"c	c #B5B6B8",
"d	c #AFB1B3",
"e	c #A0A2A4",
"f	c #A9ABAE",
"g	c #BEC0C2",
"h	c #DADBDD",
"i	c #B3B5B7",
"j	c #D2D3D5",
"k	c #CACBCD",
"l	c #97999B",
"m	c #A9ABAD",
"n	c #DDDFE0",
"o	c #BDBFC1",
"p	c #BABCBE",
"q	c #E3E4E5",
"r	c #999B9E",
"s	c #9C9DA0",
"t	c #BFC1C3",
"u	c #B4B5B7",
"v	c #BEBFC1",
"w	c #ACAEB0",
"x	c #DEDFE0",
"y	c #95979A",
"z	c #DCDDDE",
"A	c #A5A7A9",
"B	c #B5B7B9",
"C	c #9EA0A3",
"D	c #C8C9CB",
"E	c #E1E2E3",
"F	c #DADCDD",
"G	c #C5C6C8",
"H	c #9FA1A3",
"                                              ",
"                                              ",
"                                              ",
"                                              ",
"                                              ",
"                                              ",
"                                              ",
"                                              ",
"                       .........              ",
"                     .............            ",
"                    .....+@#$%......          ",
"                   ....&*=----;>,....         ",
"                  ...')---------!~....        ",
"                 ...{]------------^...        ",
"                .../(--------------_...       ",
"             ......:---------------<[..       ",
"           .......{-----------------}...      ",
"         .........|-----------------]1..      ",
"        ....2345678------------------@..      ",
"       ...90a------------------------b..      ",
"       ..9*--------------------------c..      ",
"      ...|---------------------------d....    ",
"      ..ea---------------------------f.....   ",
"     ...g-----------------------------hi....  ",
"   .....j-------------------------------k1..  ",
"  ....lmn--------------------------------o... ",
"  ...pq----------------------------------qr.. ",
" ...>-------------------------------------i.. ",
" ..sa-------------------------------------t...",
" ..u--------------------------------------v.. ",
" ..^--------------------------------------&.. ",
" ..w-------------------------------------xy.. ",
" ..9z------------------------------------~... ",
" ...A<---------------------------------aB...  ",
"  ...CDnEEEEEEEEEEEEEEEEEEEEEEEEEEEEEFGH....  ",
"   ........................................   ",
"    .....................................     ",
"      .................................       ",
"                                              ",
"                                              ",
"                                              ",
"                                              ",
"                                              ",
"                                              ",
"                                              ",
"                                              "};
