/* XPM */
static char * 248_xpm[] = {
"32 32 27 1",
" 	c None",
".	c #D1D2D3",
"+	c #D3D4D5",
"@	c #D6D7D8",
"#	c #DADBDC",
"$	c #DBDCDC",
"%	c #D7D8D9",
"&	c #E0E0E1",
"*	c #D2D3D4",
"=	c #DDDEDF",
"-	c #E6E6E6",
";	c #D9DADB",
">	c #E1E2E2",
",	c #D4D5D6",
"'	c #DEDEDF",
")	c #DEDFE0",
"!	c #DCDDDE",
"~	c #D8D9DA",
"{	c #DBDCDD",
"]	c #E1E1E1",
"^	c #DFE0E0",
"/	c #DADBDB",
"(	c #DFE0E1",
"_	c #D7D7D8",
":	c #E4E4E5",
"<	c #E5E5E6",
"[	c #E2E3E4",
"                                ",
"                                ",
"                                ",
"               ........         ",
"              ..+@#$%+...       ",
"             ..#      &*..      ",
"            ..=        -*.      ",
"          ...;          >..     ",
"       .....*            ,.     ",
"      ...@')!            ~.     ",
"     ..+                 =..    ",
"     .+                  =..    ",
"    ..{                  ],..   ",
"   ...                     ^..  ",
"  ..,/                      {.. ",
" ..@                         *. ",
" .*                          +. ",
" .+                          *. ",
" .*                         (.. ",
" .._                       :*.  ",
"  ..,><<<<<<<<<<<<<<<<<<<[~...  ",
"   .........................    ",
"     .....................      ",
"                                ",
"     ......................     ",
"     ......................     ",
"                                ",
"     ......................     ",
"     ......................     ",
"                                ",
"                                ",
"                                "};
