/* XPM */
static char * 284_xpm[] = {
"32 32 70 1",
" 	c None",
".	c #929497",
"+	c #919396",
"@	c #9C9EA1",
"#	c #ACAEB0",
"$	c #B9BABD",
"%	c #BBBCBE",
"&	c #B1B2B5",
"*	c #A1A3A5",
"=	c #949699",
"-	c #BBBCBF",
";	c #DBDCDE",
">	c #E5E6E7",
",	c #E7E8E9",
"'	c #E6E7E8",
")	c #DEE0E1",
"!	c #C7C8CA",
"~	c #98999C",
"{	c #939598",
"]	c #C2C4C5",
"^	c #CFD0D2",
"/	c #989A9D",
"(	c #B7B8BA",
"_	c #C9CACC",
":	c #D9DADB",
"<	c #E0E1E2",
"[	c #A3A4A7",
"}	c #ADAEB0",
"|	c #C2C4C6",
"1	c #C4C5C7",
"2	c #BEC0C2",
"3	c #E2E4E5",
"4	c #B5B6B9",
"5	c #A1A3A6",
"6	c #D3D5D6",
"7	c #C1C2C4",
"8	c #9D9FA1",
"9	c #D8D9DA",
"0	c #C0C2C4",
"a	c #C8C9CB",
"b	c #A5A7A9",
"c	c #D4D5D7",
"d	c #E1E3E4",
"e	c #C5C7C8",
"f	c #A2A4A6",
"g	c #B8BABC",
"h	c #BCBEC0",
"i	c #ABADAF",
"j	c #DFE0E1",
"k	c #999B9E",
"l	c #96979A",
"m	c #D7D8D9",
"n	c #DDDEDF",
"o	c #9FA1A3",
"p	c #9D9EA1",
"q	c #DCDDDE",
"r	c #DADBDC",
"s	c #9A9C9F",
"t	c #97999B",
"u	c #D6D7D9",
"v	c #ADAFB1",
"w	c #E4E5E6",
"x	c #CDCED0",
"y	c #A4A6A9",
"z	c #C9CBCC",
"A	c #D0D1D3",
"B	c #CCCECF",
"C	c #B2B4B6",
"D	c #919397",
"E	c #DDDDDD",
"                                ",
"                                ",
"                                ",
"               ........         ",
"              .+@#$%&*...       ",
"             .=-;>,,')!~..      ",
"            .{]>'''''''^/.      ",
"          ..+(>'''''''''_{.     ",
"       ...++/:''''''''''<[.     ",
"      ..=}|123'''''''''''4.     ",
"     ..56''''''''''''''''7..    ",
"     .89'''''''''''''''''0..    ",
"    ..%''''''''''''''''''ab=.   ",
"   ...c'''''''''''''''''''de{.  ",
"  ..fgd'''''''''''''''''''''h.. ",
" ..ij''''''''''''''''''''''':k. ",
" .lm''''''''''''''''''''''''no. ",
" .pq''''''''''''''''''''''''rs. ",
" .tu''''''''''''''''''''''''e.. ",
" ..vw''''''''''''''''''''''x~.  ",
"  ..yzAAAAAAAAAAAAAAAAAAABC=..  ",
"   ..+++++++++++++++++++++D.    ",
"     .....................      ",
"                                ",
"                                ",
"                                ",
"    EEE  EE  EE  EE  EE  EE     ",
"    EE  EE  EE  EE  EE  EE      ",
"     E  EE  EE  EE  EE  EE      ",
"                                ",
"                                ",
"                                "};
