/* XPM */
static char * 293_xpm[] = {
"32 32 93 2",
"  	c None",
". 	c #FFB100",
"+ 	c #929497",
"@ 	c #FFBC00",
"# 	c #FFBE00",
"$ 	c #FFB200",
"% 	c #919396",
"& 	c #989A9D",
"* 	c #A0A2A5",
"= 	c #95979A",
"- 	c #FFC400",
"; 	c #FFE900",
"> 	c #FFF200",
", 	c #FFED00",
"' 	c #FFCB00",
") 	c #F1AD21",
"! 	c #919498",
"~ 	c #939598",
"{ 	c #B2B3B5",
"] 	c #D7D8DA",
"^ 	c #E7E8E9",
"/ 	c #D1D2D3",
"( 	c #A7A9AB",
"_ 	c #FFC000",
": 	c #FFF100",
"< 	c #FFF000",
"[ 	c #FEC603",
"} 	c #B59C7C",
"| 	c #929598",
"1 	c #C2C4C5",
"2 	c #E5E6E7",
"3 	c #E6E7E8",
"4 	c #B0B2B4",
"5 	c #FFE100",
"6 	c #FEF006",
"7 	c #ECE129",
"8 	c #C8C159",
"9 	c #B9B171",
"0 	c #939496",
"a 	c #B2B4B5",
"b 	c #E2E3E4",
"c 	c #9EA0A3",
"d 	c #FFB300",
"e 	c #F0E51D",
"f 	c #B0AD7D",
"g 	c #909397",
"h 	c #909297",
"i 	c #909296",
"j 	c #909295",
"k 	c #D8D9DB",
"l 	c #C7C8CA",
"m 	c #FFE700",
"n 	c #F4E725",
"o 	c #9C9C8F",
"p 	c #929498",
"q 	c #B4B6B8",
"r 	c #D2D3D5",
"s 	c #DCDDDE",
"t 	c #D2D3D4",
"u 	c #FFD900",
"v 	c #AEAC78",
"w 	c #CBCDCE",
"x 	c #E4E5E6",
"y 	c #FFB400",
"z 	c #EBD631",
"A 	c #949595",
"B 	c #AEB0B2",
"C 	c #96989A",
"D 	c #DAA754",
"E 	c #9F978A",
"F 	c #D5D6D8",
"G 	c #E3E4E5",
"H 	c #C3C5C7",
"I 	c #919497",
"J 	c #9B9D9F",
"K 	c #BEBFC1",
"L 	c #B7B8BB",
"M 	c #949699",
"N 	c #DBDCDD",
"O 	c #DCDDDF",
"P 	c #B4B5B7",
"Q 	c #DEDFE0",
"R 	c #96989B",
"S 	c #B5B6B9",
"T 	c #CFD0D1",
"U 	c #DDDEDF",
"V 	c #9A9C9F",
"W 	c #CACBCC",
"X 	c #D7D8D9",
"Y 	c #D6D7D8",
"Z 	c #C1C3C4",
"` 	c #97999B",
" .	c #1E87E8",
"                                                                ",
"                                                                ",
"                    . .                                         ",
"            .       . .       . .                               ",
"            . .     . .     . .                                 ",
"            . .             . .                                 ",
"    . .           . . . .             + + + + +                 ",
"    . . .     . . . @ # $ . .     + + % & * = % + +             ",
"        .   . . - ; > > , ' $ ) ! ~ { ] ^ ^ ^ / ( + +           ",
"            . _ : : : : : < [ } | 1 2 3 3 3 3 3 2 4 +           ",
"            $ 5 : : : 6 7 8 9 0 a 3 3 3 3 3 3 3 3 b c +         ",
"  . . .   . d ; : : e f g h i j k 3 3 3 3 3 3 3 3 3 l %         ",
"  . . .   . $ m : n o p q r s t 3 3 3 3 3 3 3 3 3 3 b % +       ",
"            . u : v ~ w 3 3 3 3 3 3 3 3 3 3 3 3 3 3 x = +       ",
"            . y z A B 3 3 3 3 3 3 3 3 3 3 3 3 3 3 3 b C + +     ",
"      . .     D E + F 3 3 3 3 3 3 3 3 3 3 3 3 3 3 3 3 G H + +   ",
"    . . .     I J K b 3 3 3 3 3 3 3 3 3 3 3 3 3 3 3 3 3 ^ L +   ",
"            + M N 3 3 3 3 3 3 3 3 3 3 3 3 3 3 3 3 3 3 3 3 O M   ",
"            + P ^ 3 3 3 3 3 3 3 3 3 3 3 3 3 3 3 3 3 3 3 3 Q R + ",
"            + S 3 3 3 3 3 3 3 3 3 3 3 3 3 3 3 3 3 3 3 3 3 T +   ",
"            + R U 3 3 3 3 3 3 3 3 3 3 3 3 3 3 3 3 3 3 ^ U V +   ",
"              + V W X X X X X X X X X X X X X X X X Y Z ` +     ",
"                + + + + + + + + + + + + + + + + + + + + +       ",
"                                                                ",
"                                                                ",
"                                 . .     . .                    ",
"                                 . .   . .                      ",
"                               . .     . .                      ",
"                               . .   . .                        ",
"                             . .     . .                        ",
"                                                                ",
"                                                                "};
