/* XPM */
static char * 296_xpm[] = {
"32 32 68 1",
" 	c None",
".	c #929497",
"+	c #949699",
"@	c #95979A",
"#	c #939598",
"$	c #919396",
"%	c #A5A7A9",
"&	c #C0C1C3",
"*	c #CBCCCE",
"=	c #CDCED0",
"-	c #C8C9CB",
";	c #B6B7B9",
">	c #97999C",
",	c #989A9D",
"'	c #C6C7C9",
")	c #E2E3E4",
"!	c #E5E6E7",
"~	c #E6E7E8",
"{	c #E4E5E6",
"]	c #DBDCDD",
"^	c #A9ABAD",
"/	c #939597",
"(	c #96989B",
"_	c #E1E1E3",
":	c #ADAFB1",
"<	c #C1C2C4",
"[	c #DEDFE0",
"}	c #9B9C9F",
"|	c #9EA0A2",
"1	c #DFE0E2",
"2	c #C3C4C6",
"3	c #989A9C",
"4	c #B3B5B7",
"5	c #C3C5C6",
"6	c #C0C2C3",
"7	c #C4C6C7",
"8	c #DADBDD",
"9	c #95979B",
"0	c #DDDEDF",
"a	c #E5E6E8",
"b	c #9EA0A3",
"c	c #E1E2E3",
"d	c #9FA0A3",
"e	c #D9DADB",
"f	c #A3A5A8",
"g	c #AAABAE",
"h	c #CCCDCF",
"i	c #A1A3A5",
"j	c #9B9D9F",
"k	c #E4E6E7",
"l	c #D1D3D4",
"m	c #B9BABC",
"n	c #E3E4E5",
"o	c #A5A6A9",
"p	c #E7E8E9",
"q	c #C1C3C5",
"r	c #BCBDBF",
"s	c #A9AAAD",
"t	c #A0A2A4",
"u	c #DFE0E1",
"v	c #B0B2B4",
"w	c #D6D7D9",
"x	c #C2C4C5",
"y	c #9A9C9F",
"z	c #9C9EA1",
"A	c #999B9E",
"B	c #949698",
"C	c #1E87E8",
"                                ",
"                 .....          ",
"               ...+@#...        ",
"             ..$%&*=-;>..       ",
"            ..,')!~~~{]^/.      ",
"            .(=~~~~~~~~_:..     ",
"          ..$<~~~~~~~~~~[}.     ",
"       ..$$$|1~~~~~~~~~~~2$.    ",
"      ..34567{~~~~~~~~~~~89.    ",
"     ..:0!~~a~~~~~~~~~~~~[b.    ",
"    .$:c~~~~~~~~~~~~~~~~~[d..   ",
"    .>e~~~~~~~~~~~~~~~~~~[f(..  ",
"   ..gc~~~~~~~~~~~~~~~~~~~{hi.. ",
"  .#j6k~~~~~~~~~~~~~~~~~~~~~l,. ",
" .+mn~~~~~~~~~~~~~~~~~~~~~~~~:. ",
" .on~~~~~~~~~~~~~~~~~~~~~~~~pq$.",
".$rp~~~~~~~~~~~~~~~~~~~~~~~~p&$.",
"..mp~~~~~~~~~~~~~~~~~~~~~~~~!s. ",
" .tu~~~~~~~~~~~~~~~~~~~~~~~!*(. ",
" .#vw{!!!!!!!!!!!!!!!!!!!{]xy.. ",
"  .#,zzzzzzzzzzzzzzzzzzzzzAB..  ",
"   .........................    ",
"                                ",
"                                ",
"             CC   C             ",
"             CC  CC             ",
"            CC   CC             ",
"            CC  CC              ",
"           CC  CCC              ",
"           CC  CC               ",
"           C   CC               ",
"                                "};
