/* XPM */
static char * 305_xpm[] = {
"32 32 90 1",
" 	c None",
".	c #FFB100",
"+	c #929497",
"@	c #FFB800",
"#	c #FFCF00",
"$	c #FFDA00",
"%	c #FFD500",
"&	c #FFC200",
"*	c #96989B",
"=	c #B1B2B5",
"-	c #C1C2C4",
";	c #C4C6C7",
">	c #BABBBD",
",	c #A1A3A5",
"'	c #919396",
")	c #FFBF00",
"!	c #FFEE00",
"~	c #FFF100",
"{	c #FFF000",
"]	c #FFD200",
"^	c #BB9E6A",
"/	c #A7A9AB",
"(	c #DFE0E1",
"_	c #E5E6E7",
":	c #E6E7E8",
"<	c #E4E5E6",
"[	c #BFC1C3",
"}	c #949699",
"|	c #FFB200",
"1	c #FFE900",
"2	c #FEF002",
"3	c #FEF008",
"4	c #E4BF48",
"5	c #939496",
"6	c #A4A6A9",
"7	c #E3E4E5",
"8	c #C8C9CB",
"9	c #939598",
"0	c #FFC500",
"a	c #FFF200",
"b	c #FEF000",
"c	c #DAD150",
"d	c #B5B278",
"e	c #A0A085",
"f	c #969891",
"g	c #DBDCDD",
"h	c #A4A5A8",
"i	c #FFCE00",
"j	c #F8EB0F",
"k	c #B4B179",
"l	c #919497",
"m	c #97999C",
"n	c #A4A6A8",
"o	c #A7A8AB",
"p	c #ACADAF",
"q	c #CFD0D1",
"r	c #FFC300",
"s	c #FDEF06",
"t	c #B3B07D",
"u	c #ADAFB1",
"v	c #DFE1E2",
"w	c #FFE600",
"x	c #E6DB3D",
"y	c #939595",
"z	c #B1B3B5",
"A	c #949599",
"B	c #F7BB12",
"C	c #AEAA78",
"D	c #D8D9DA",
"E	c #E1E2E3",
"F	c #B3B5B7",
"G	c #95979A",
"H	c #E2A944",
"I	c #9B968C",
"J	c #999B9E",
"K	c #E7E8E9",
"L	c #D4D5D7",
"M	c #DEDFE0",
"N	c #BDBFC1",
"O	c #DADBDD",
"P	c #D7D8DA",
"Q	c #DADBDC",
"R	c #D0D2D3",
"S	c #A9ABAD",
"T	c #CFD0D2",
"U	c #A1A2A5",
"V	c #BFC0C3",
"W	c #C2C4C5",
"X	c #AFB0B2",
"Y	c #1E87E8",
"                                ",
"          ..                    ",
"          ..   .                ",
"     ..   ..  ..                ",
"      ..      ..                ",
"                                ",
"  ..    ......    +++++++       ",
"  ... ..@#$%&.. ++*=-;>,'+      ",
"      .)!~~~{].^+/(_:::<[}+     ",
"     .|1~~~~234567:::::::89+    ",
"     .0a~~bcdef*g::::::::_h+    ",
" ..  .i~~jklmnop_:::::::::q'    ",
"     .r~st+uv<<7::::::::::(9+   ",
"     ..wxyz_::::::::::::::vA+   ",
"      .BC9D:::::::::::::::EFG+  ",
"  ... HI+JK:::::::::::::::::LG+ ",
"  ..  +9;M::::::::::::::::::K;+ ",
"      +N:::::::::::::::::::::OG+",
"     +'P:::::::::::::::::::::Q} ",
"     +'R:::::::::::::::::::::-+ ",
"      +S_:::::::::::::::::::TG+ ",
"      +'UVWWWWWWWWWWWWWWWW-X++  ",
"       ++++++++++++++++++++++   ",
"                                ",
"                                ",
"             Y  YY  Y  YY       ",
"            YY  Y  YY  Y        ",
"            Y  YY  Y  YY        ",
"           YY  Y  YY  Y         ",
"           Y  YY YY  YY         ",
"                                ",
"                                "};
