/* XPM */
static char * 317_xpm[] = {
"32 32 70 1",
" 	c None",
".	c #929497",
"+	c #939598",
"@	c #989A9D",
"#	c #A0A2A5",
"$	c #ADAEB1",
"%	c #A1A3A5",
"&	c #989A9C",
"*	c #96989B",
"=	c #B8BABC",
"-	c #D6D7D8",
";	c #E6E7E8",
">	c #E7E8E9",
",	c #E5E6E7",
"'	c #D5D6D7",
")	c #B7B8BA",
"!	c #999B9D",
"~	c #CFD0D2",
"{	c #E4E5E6",
"]	c #C8C9CB",
"^	c #97999B",
"/	c #95979A",
"(	c #C6C8C9",
"_	c #C1C3C4",
":	c #A7A9AB",
"<	c #E3E4E5",
"[	c #A8AAAC",
"}	c #9A9C9E",
"|	c #9B9DA0",
"1	c #C7C9CB",
"2	c #C8C9CC",
"3	c #919396",
"4	c #ABADAE",
"5	c #CACBCC",
"6	c #D9DADB",
"7	c #DEDFE0",
"8	c #E1E2E3",
"9	c #D3D4D6",
"0	c #97999C",
"a	c #B8B9BC",
"b	c #E0E1E2",
"c	c #9B9C9F",
"d	c #A5A7A9",
"e	c #DEDFE1",
"f	c #D4D5D7",
"g	c #C2C4C6",
"h	c #C9CACC",
"i	c #D7D9DA",
"j	c #B0B2B4",
"k	c #B2B4B6",
"l	c #DBDDDE",
"m	c #BBBCBE",
"n	c #B4B6B8",
"o	c #9C9DA0",
"p	c #E1E2E4",
"q	c #C0C2C4",
"r	c #AAABAD",
"s	c #B6B8B9",
"t	c #9FA1A4",
"u	c #DFE0E1",
"v	c #9D9FA1",
"w	c #C3C4C6",
"x	c #B5B7B9",
"y	c #B7B9BB",
"z	c #D8DADB",
"A	c #DDDEDF",
"B	c #CCCDCF",
"C	c #949699",
"D	c #1E87E8",
"E	c #D1D2D3",
"                                ",
"               ........         ",
"             ..+@#$$%&+..       ",
"            ..*=-;>>,')*..      ",
"           ..!~{;;;;;;{]^.      ",
"           ./(,;;;;;;;;>_..     ",
"       .....:<;;;;;;;;;;<[..    ",
"      ../}|@1>;;;;;;;;;;;2..    ",
"     .34567-8;;;;;;;;;;;;90.    ",
"    ..ab;;;;;;;;;;;;;;;;;-c.    ",
"    .de;;;;;;;;;;;;;;;;;;f&..   ",
"   .+g>;;;;;;;;;;;;;;;;;;bhd3.  ",
"  ..*i;;;;;;;;;;;;;;;;;;;;;bj+. ",
" .+kh<;;;;;;;;;;;;;;;;;;;;;;l|. ",
".3m<;;;;;;;;;;;;;;;;;;;;;;;;>n3.",
".op;;;;;;;;;;;;;;;;;;;;;;;;;>q3.",
".r<;;;;;;;;;;;;;;;;;;;;;;;;;>s3.",
".t8;;;;;;;;;;;;;;;;;;;;;;;;;uv. ",
".3w;;;;;;;;;;;;;;;;;;;;;;;><x+. ",
" .*yzuuuuuuuuuuuuuuuuuuuuAB:C.  ",
" ...33333333333333333333333..   ",
"   .........................    ",
"                                ",
"                                ",
"         DD  DD     E           ",
"        DD  DD   EEEE           ",
"        DD  DD   EEEE           ",
"       DD  DDD  EEEEEE          ",
"      DDD  DD    EEEE           ",
"      DD  DDD    EEEE           ",
"      DD  DD                    ",
"                                "};
