/* XPM */
static char * 326_xpm[] = {
"32 32 66 1",
" 	c None",
".	c #929497",
"+	c #949699",
"@	c #A0A2A5",
"#	c #A3A5A7",
"$	c #989A9D",
"%	c #A1A3A6",
"&	c #C5C6C8",
"*	c #E1E2E3",
"=	c #E6E7E8",
"-	c #E4E5E6",
";	c #CED0D1",
">	c #A9ABAD",
",	c #939598",
"'	c #AEB0B2",
")	c #DEDFE1",
"!	c #E2E3E5",
"~	c #BCBDBF",
"{	c #A3A5A8",
"]	c #E2E3E4",
"^	c #B5B7B9",
"/	c #95979A",
"(	c #D2D3D5",
"_	c #DBDCDD",
":	c #9D9EA1",
"<	c #9B9DA0",
"[	c #A5A7A9",
"}	c #A6A7AA",
"|	c #ABADAF",
"1	c #DFE1E2",
"2	c #E5E6E8",
"3	c #AFB0B3",
"4	c #C0C1C3",
"5	c #DFE0E1",
"6	c #E5E7E8",
"7	c #E7E8E8",
"8	c #BEC0C1",
"9	c #CBCCCE",
"0	c #C2C4C5",
"a	c #B0B2B4",
"b	c #E4E5E7",
"c	c #BCBEC0",
"d	c #CDCFD0",
"e	c #D7D8DA",
"f	c #A0A2A4",
"g	c #DDDFE0",
"h	c #E1E2E4",
"i	c #ABADB0",
"j	c #CFD0D2",
"k	c #D5D6D7",
"l	c #CDCED0",
"m	c #DCDEDF",
"n	c #9EA0A2",
"o	c #9C9DA0",
"p	c #DCDDDE",
"q	c #9D9FA1",
"r	c #9A9C9E",
"s	c #DADBDC",
"t	c #D1D2D4",
"u	c #DEDFE0",
"v	c #A3A4A7",
"w	c #BBBCBF",
"x	c #DCDDDF",
"y	c #C8C9CB",
"z	c #A2A4A6",
"A	c #D1D2D3",
"                                ",
"                                ",
"                ......          ",
"              ...+@#$...        ",
"             ..%&*==-;>,.       ",
"            ..')======!~..      ",
"           ..{]=========^..     ",
"        ..../(==========_:.     ",
"       ..<[}|1==========23.     ",
"      .,4_*]56==========78.     ",
"     ./9=================0..    ",
"     .ab================7c...   ",
"    ..d===================e|..  ",
"  ..,fg====================hi.. ",
"  .<j=======================k/. ",
" .,l========================mn. ",
" .o_========================pq. ",
" .rs========================t+. ",
" ..0=======================uv.  ",
"  ./wx]]]]]]]]]]]]]]]]]]]5yz..  ",
"   ..........................   ",
"    .......................     ",
"                                ",
"                                ",
"              A A               ",
"              AAA               ",
"             AAAAA              ",
"            AAAAAA              ",
"              AAA               ",
"              A A               ",
"                                ",
"                                "};
