/* XPM */
static char * 359_xpm[] = {
"55 55 117 2",
"  	c None",
". 	c #FFB100",
"+ 	c #333333",
"@ 	c #FFB900",
"# 	c #FFC600",
"$ 	c #FFCA00",
"% 	c #FFC400",
"& 	c #FFB600",
"* 	c #3A3A3B",
"= 	c #444545",
"- 	c #4A4B4C",
"; 	c #454546",
"> 	c #383939",
", 	c #FFBF00",
"' 	c #FFE200",
") 	c #FFF100",
"! 	c #FFF000",
"~ 	c #FFDA00",
"{ 	c #FFB800",
"] 	c #363637",
"^ 	c #555657",
"/ 	c #727477",
"( 	c #808285",
"_ 	c #707274",
": 	c #525354",
"< 	c #343434",
"[ 	c #FFCB00",
"} 	c #FFEC00",
"| 	c #96701A",
"1 	c #474849",
"2 	c #787A7C",
"3 	c #737577",
"4 	c #414242",
"5 	c #D1950B",
"6 	c #353433",
"7 	c #7F8184",
"8 	c #7D7F82",
"9 	c #FFB300",
"0 	c #FFE900",
"a 	c #FEDA00",
"b 	c #5D4D28",
"c 	c #484849",
"d 	c #7D7F81",
"e 	c #404041",
"f 	c #EFE204",
"g 	c #B4AB13",
"h 	c #837E1F",
"i 	c #6C6825",
"j 	c #5C5929",
"k 	c #787A7D",
"l 	c #FFD600",
"m 	c #F0E304",
"n 	c #87811E",
"o 	c #393931",
"p 	c #575859",
"q 	c #4B4C4D",
"r 	c #FFDC00",
"s 	c #C9BF0D",
"t 	c #45442E",
"u 	c #747578",
"v 	c #696A6C",
"w 	c #FFD900",
"x 	c #C4BA0F",
"y 	c #373732",
"z 	c #454647",
"A 	c #5F6062",
"B 	c #6C6E70",
"C 	c #717375",
"D 	c #6A6B6D",
"E 	c #5B5C5E",
"F 	c #7C7E81",
"G 	c #FFCD00",
"H 	c #E5D807",
"I 	c #403F30",
"J 	c #3B3B3B",
"K 	c #6B6D6F",
"L 	c #3B3B3C",
"M 	c #FFB700",
"N 	c #FFEF00",
"O 	c #6D6924",
"P 	c #3D3D3D",
"Q 	c #3F4040",
"R 	c #FFD300",
"S 	c #D2C70B",
"T 	c #FFB200",
"U 	c #FFDE00",
"V 	c #89831D",
"W 	c #383838",
"X 	c #F5AB02",
"Y 	c #96711A",
"Z 	c #3C3A31",
"` 	c #6F7073",
" .	c #6E6F71",
"..	c #464747",
"+.	c #DC9B09",
"@.	c #4D432C",
"#.	c #545556",
"$.	c #3C3C3C",
"%.	c #4F5051",
"&.	c #373737",
"*.	c #656668",
"=.	c #6D6E71",
"-.	c #3E3E3F",
";.	c #4E4F50",
">.	c #494A4B",
",.	c #6B6C6E",
"'.	c #393939",
").	c #5E6061",
"!.	c #7C7E80",
"~.	c #7A7B7E",
"{.	c #454646",
"].	c #7A7C7F",
"^.	c #7B7D80",
"/.	c #7B7C7F",
"(.	c #727376",
"_.	c #5A5B5D",
":.	c #1E87E8",
"                                                                                                              ",
"                                                                                                              ",
"                                  . . .                                                                       ",
"                                  . . .                                                                       ",
"                  . .             . . .           . .                                                         ",
"                  . . .           . . .           . . .                                                       ",
"                  . . .           . . .         . . . .                                                       ",
"                    . . .                       . . .                                                         ",
"                    . . .                       . .                                                           ",
"                                                                                                              ",
"      . .                   . . . . . . . .                     + + + + + + + + +                             ",
"      . . . .             . . . . . . . . . . .             + + + + + + + + + + + + +                         ",
"      . . . . .       . . . . . @ # $ % & . . . .         + + + + + * = - ; > + + + + +                       ",
"          . .       . . . . , ' ) ) ) ) ! ~ { . . .   + + + + ] ^ / ( ( ( ( ( _ : < + + +                     ",
"                    . . . [ ! ) ) ) ) ) ) ) } , . . | + + + 1 2 ( ( ( ( ( ( ( ( ( 3 4 + + +                   ",
"                  . . . % ) ) ) ) ) ) ) ) ) ) } { 5 6 + + : 7 ( ( ( ( ( ( ( ( ( ( ( 8 1 + + +                 ",
"                  . . 9 0 ) ) ) ) ) ) ) ) ) ) ) a b + + c 7 ( ( ( ( ( ( ( ( ( ( ( ( ( d e + + +               ",
"                  . . # ) ) ) ) ) ) ) ) f g h i j + + ] k ( ( ( ( ( ( ( ( ( ( ( ( ( ( ( _ + + +               ",
"  . . . . .     . . . l ) ) ) ) ) ) m n o + + + + + + p ( ( ( ( ( ( ( ( ( ( ( ( ( ( ( ( ( q + +               ",
"  . . . . .     . . . r ) ) ) ) ) s t + + + + + + + + u ( ( ( ( ( ( ( ( ( ( ( ( ( ( ( ( ( v + + +             ",
"  . . . . .     . . . w ) ) ) ) x y + + + z A B C D E ( ( ( ( ( ( ( ( ( ( ( ( ( ( ( ( ( ( F + + +             ",
"                  . . G ) ) ) H I + + J K ( ( ( ( ( ( ( ( ( ( ( ( ( ( ( ( ( ( ( ( ( ( ( ( ( L + +             ",
"                  . . M N ) ) O + + P k ( ( ( ( ( ( ( ( ( ( ( ( ( ( ( ( ( ( ( ( ( ( ( ( ( ( Q + +             ",
"                  . . . R ) S + + < / ( ( ( ( ( ( ( ( ( ( ( ( ( ( ( ( ( ( ( ( ( ( ( ( ( ( ( J + + +           ",
"                    . . T U V + + : ( ( ( ( ( ( ( ( ( ( ( ( ( ( ( ( ( ( ( ( ( ( ( ( ( ( ( 8 W + + + + +       ",
"          . .       . . X Y Z + + ` ( ( ( ( ( ( ( ( ( ( ( ( ( ( ( ( ( ( ( ( ( ( ( ( ( ( ( ( (  ...+ + + +     ",
"        . . . .       +.@.+ + + < 7 ( ( ( ( ( ( ( ( ( ( ( ( ( ( ( ( ( ( ( ( ( ( ( ( ( ( ( ( ( ( ( #.+ + +     ",
"      . . . . .       6 + + + $.%.( ( ( ( ( ( ( ( ( ( ( ( ( ( ( ( ( ( ( ( ( ( ( ( ( ( ( ( ( ( ( ( ( c + + +   ",
"      . . .         + + + &.*.( ( ( ( ( ( ( ( ( ( ( ( ( ( ( ( ( ( ( ( ( ( ( ( ( ( ( ( ( ( ( ( ( ( ( C + + +   ",
"                    + + + =.( ( ( ( ( ( ( ( ( ( ( ( ( ( ( ( ( ( ( ( ( ( ( ( ( ( ( ( ( ( ( ( ( ( ( ( ( -.+ +   ",
"                    + + ;.( ( ( ( ( ( ( ( ( ( ( ( ( ( ( ( ( ( ( ( ( ( ( ( ( ( ( ( ( ( ( ( ( ( ( ( ( ( >.+ +   ",
"                  + + + *.( ( ( ( ( ( ( ( ( ( ( ( ( ( ( ( ( ( ( ( ( ( ( ( ( ( ( ( ( ( ( ( ( ( ( ( ( ( c + +   ",
"                  + + + ,.( ( ( ( ( ( ( ( ( ( ( ( ( ( ( ( ( ( ( ( ( ( ( ( ( ( ( ( ( ( ( ( ( ( ( ( ( 7 '.+ +   ",
"                  + + + ).( ( ( ( ( ( ( ( ( ( ( ( ( ( ( ( ( ( ( ( ( ( ( ( ( ( ( ( ( ( ( ( ( ( ( ( ( v + + +   ",
"                    + + e 7 ( ( ( ( ( ( ( ( ( ( ( ( ( ( ( ( ( ( ( ( ( ( ( ( ( ( ( ( ( ( ( ( ( ( ( !.-.+ + +   ",
"                    + + + #.( ( ( ( ( ( ( ( ( ( ( ( ( ( ( ( ( ( ( ( ( ( ( ( ( ( ( ( ( ( ( ( ( ( ~.{.+ + +     ",
"                      + + + c K ].^.^.^.^.^.^.^.^.^.^.^.^.^.^.^.^.^.^.^.^.^.^.^.^.^.^.^.^./.(._.W + + +       ",
"                      + + + + + + + + + + + + + + + + + + + + + + + + + + + + + + + + + + + + + + + +         ",
"                          + + + + + + + + + + + + + + + + + + + + + + + + + + + + + + + + + + + + +           ",
"                            + + + + + + + + + + + + + + + + + + + + + + + + + + + + + + + + + +               ",
"                                                                                                              ",
"                                                                                                              ",
"                                                                                                              ",
"                                :.:.:.      :.:.:.      :.:.:.      :.:.:.      :.:.:.      :.:.:.            ",
"                              :.:.:.      :.:.:.      :.:.:.      :.:.:.      :.:.:.      :.:.:.              ",
"                              :.:.:.      :.:.:.      :.:.:.      :.:.:.      :.:.:.      :.:.:.              ",
"                            :.:.:.      :.:.:.      :.:.:.      :.:.:.      :.:.:.      :.:.:.                ",
"                            :.:.:.      :.:.:.      :.:.:.      :.:.:.      :.:.:.      :.:.:.                ",
"                          :.:.:.      :.:.:.      :.:.:.      :.:.:.      :.:.:.      :.:.:.                  ",
"                          :.:.:.      :.:.:.      :.:.:.      :.:.:.      :.:.:.      :.:.:.                  ",
"                        :.:.:.      :.:.:.      :.:.:.      :.:.:.      :.:.:.      :.:.:.                    ",
"                        :.:.:.      :.:.:.      :.:.:.      :.:.:.      :.:.:.      :.:.:.                    ",
"                                                                                                              ",
"                                                                                                              ",
"                                                                                                              "};
