/* XPM */
static char * 365_xpm[] = {
"32 32 88 1",
" 	c None",
".	c #FFB100",
"+	c #929497",
"@	c #FFB200",
"#	c #FFBA00",
"$	c #FFB600",
"%	c #FFB000",
"&	c #919396",
"*	c #97999C",
"=	c #9A9C9E",
"-	c #FFCB00",
";	c #FFED00",
">	c #FFF000",
",	c #FFEF00",
"'	c #FFDC00",
")	c #FFB700",
"!	c #949699",
"~	c #ABADAF",
"{	c #D7D8DA",
"]	c #E4E5E6",
"^	c #E1E2E3",
"/	c #BFC0C2",
"(	c #989A9D",
"_	c #FFD300",
":	c #FFF100",
"<	c #FFE800",
"[	c #F8B207",
"}	c #9F978C",
"|	c #939598",
"1	c #CACCCD",
"2	c #E5E6E7",
"3	c #E6E7E8",
"4	c #DDDFE0",
"5	c #9FA1A3",
"6	c #FFB900",
"7	c #ECE124",
"8	c #DBD24C",
"9	c #C0B172",
"0	c #C1C3C4",
"a	c #E7E8E9",
"b	c #DADBDD",
"c	c #95979A",
"d	c #FFCC00",
"e	c #EDE237",
"f	c #ACAA7A",
"g	c #9B9DA0",
"h	c #B6B7BA",
"i	c #E4DA37",
"j	c #969794",
"k	c #ABACAE",
"l	c #D0D1D2",
"m	c #C6C7C9",
"n	c #DADBDC",
"o	c #F8EB21",
"p	c #9E9E8C",
"q	c #959699",
"r	c #D2D3D5",
"s	c #E0E1E2",
"t	c #FFD600",
"u	c #D1C952",
"v	c #929498",
"w	c #DEDFE0",
"x	c #FDB100",
"y	c #DEA949",
"z	c #989890",
"A	c #D8D9DB",
"B	c #A6A8AB",
"C	c #A6988B",
"D	c #939495",
"E	c #ACADB0",
"F	c #A3A5A7",
"G	c #A2A4A7",
"H	c #DCDDDE",
"I	c #D3D4D6",
"J	c #919397",
"K	c #CCCDCF",
"L	c #DBDCDD",
"M	c #D6D7D8",
"N	c #C4C6C8",
"O	c #E5E6E8",
"P	c #A8A9AC",
"Q	c #999B9E",
"R	c #CED0D1",
"S	c #E3E4E5",
"T	c #D8D9DA",
"U	c #B1B3B4",
"V	c #1E87E8",
"W	c #D1D2D3",
"                                ",
"                                ",
"          ..                    ",
"     ..   ..   .                ",
"     ..   ..  ..                ",
"      .       .                 ",
"  .      ....      ++++         ",
"  ..   ..@#$%.   ++&*=+&+       ",
"   .  .@-;>,'). +!~{]]^/(+      ",
"     .._:::::<[}|123333345+     ",
"     .6>::::789+0a3333333bc+    ",
" ..  .d:::ef+&&g^33333333ah+    ",
" ..  .d::ij!k1lm3333333333n&    ",
"     .6:opqr33333333333333s!+   ",
"     ..tuvm333333333333333w&++  ",
"   .  xyz!s3333333333333333AB++ ",
"  ..  CDcEa33333333333333333]F+ ",
"  .   +GHa3333333333333333333I| ",
"     +JK333333333333333333333Lc+",
"     +&A333333333333333333333M| ",
"      +N33333333333333333333OP+ ",
"      +QRS2222222222222222]TU++ ",
"       +|!!!!!!!!!!!!!!!!!!|++  ",
"        ++++++++++++++++++++    ",
"                                ",
"                                ",
"         VV VV  WWWW   WWWW     ",
"        VV  VV  WWWW   WWW      ",
"        VV VV  WWWWW  WWWWW     ",
"       VV  VV   WWW    WWW      ",
"       VV VV    W W    W W      ",
"                                "};
