/* XPM */
static char * 389_xpm[] = {
"32 32 99 2",
"  	c None",
". 	c #333333",
"+ 	c #323232",
"@ 	c #3D3E3E",
"# 	c #4F5051",
"$ 	c #595A5C",
"% 	c #5B5C5D",
"& 	c #525355",
"* 	c #424344",
"= 	c #343535",
"- 	c #5A5C5D",
"; 	c #77797B",
"> 	c #7F8184",
", 	c #808285",
"' 	c #797B7E",
") 	c #666769",
"! 	c #383939",
"~ 	c #343434",
"{ 	c #616365",
"] 	c #6C6E70",
"^ 	c #39393A",
"/ 	c #565759",
"( 	c #67696B",
"_ 	c #343433",
": 	c #333332",
"< 	c #75777A",
"[ 	c #7A7C7F",
"} 	c #454546",
"| 	c #353535",
"1 	c #4C4D4E",
"2 	c #616364",
"3 	c #626466",
"4 	c #5D5E60",
"5 	c #7D7F82",
"6 	c #565758",
"7 	c #444445",
"8 	c #6F7173",
"9 	c #5F6062",
"0 	c #3E3E3F",
"a 	c #747578",
"b 	c #66686A",
"c 	c #474849",
"d 	c #707174",
"e 	c #7C7E81",
"f 	c #636567",
"g 	c #585A5B",
"h 	c #5B5D5E",
"i 	c #4B4C4D",
"j 	c #7A7B7E",
"k 	c #757779",
"l 	c #3A3A3A",
"m 	c #363636",
"n 	c #737578",
"o 	c #898580",
"p 	c #B19367",
"q 	c #AF9268",
"r 	c #868480",
"s 	c #787A7D",
"t 	c #404141",
"u 	c #3E3E3E",
"v 	c #77797C",
"w 	c #B69462",
"x 	c #FEB100",
"y 	c #DFA440",
"z 	c #838382",
"A 	c #76787A",
"B 	c #3B3B3C",
"C 	c #383838",
"D 	c #737477",
"E 	c #858480",
"F 	c #EDAA1A",
"G 	c #FCB001",
"H 	c #9D8C6D",
"I 	c #646667",
"J 	c #333232",
"K 	c #4E4E50",
"L 	c #7E8083",
"M 	c #7F8286",
"N 	c #BE9858",
"O 	c #FFB100",
"P 	c #D4A13E",
"Q 	c #6A6C6E",
"R 	c #68696B",
"S 	c #6E6F72",
"T 	c #7D766C",
"U 	c #ECA82B",
"V 	c #FCB000",
"W 	c #C1965F",
"X 	c #A08870",
"Y 	c #707172",
"Z 	c #323231",
"` 	c #956C23",
" .	c #FDB000",
"..	c #CB8F14",
"+.	c #343331",
"@.	c #D0940D",
"#.	c #F6AC03",
"$.	c #6D5627",
"%.	c #323233",
"                                                                ",
"                                                                ",
"                                                                ",
"                              . . . . . . . .                   ",
"                            . + @ # $ % & * . . .               ",
"                          . = - ; > , , , ' ) ! . .             ",
"                        . ~ { > , , , , , , , ] ^ .             ",
"                    . . + / > , , , , , , , , , ( _ .           ",
"              . . : + + ^ < , , , , , , , , , , [ } .           ",
"            . . | 1 2 3 4 5 , , , , , , , , , , , 6 .           ",
"          . . 7 8 , , , , , , , , , , , , , , , , 9 . .         ",
"          . 0 a , , , , , , , , , , , , , , , , , 9 . .         ",
"        . . - , , , , , , , , , , , , , , , , , , b c | .       ",
"      . . . d , , , , , , , , , , , , , , , , , , , e f ~ .     ",
"    . . 7 g e , , , , , , , , , , , , , , , , , , , , , h . .   ",
"  . . i j , , , , , , , , , , , , , , , , , , , , , , , k l .   ",
"  . m n , , , , , , , , , , , , o p q r , , , , , , , , s t .   ",
"  . u v , , , , , , , , , , , , w x y z , , , , , , , , A B .   ",
"  . C D , , , , , , , , , , , E F G H , , , , , , , , , I J .   ",
"  . . K L , , , , , , , , , M N O P , , , , , , , , , Q ! .     ",
"    . . } R S S S S S S S S T U V W X Y S S S S S Q & | . .     ",
"      . . + Z Z Z Z Z Z Z Z `  .O O ..+.Z Z Z Z Z + + .         ",
"          . . . . . . . . . @.#.O O $.%.. . . . . .             ",
"                                O O                             ",
"                              O O                               ",
"                              O O O O                           ",
"                            O O O O                             ",
"                                O O                             ",
"                              O O                               ",
"                              O O                               ",
"                            O O                                 ",
"                                                                "};
