/* XPM */
static char * 392_xpm[] = {
"32 32 111 2",
"  	c None",
". 	c #FFB100",
"+ 	c #333333",
"@ 	c #FFB200",
"# 	c #FFBA00",
"$ 	c #FFB600",
"% 	c #FFB000",
"& 	c #313131",
"* 	c #373737",
"= 	c #3A3B3B",
"- 	c #323332",
"; 	c #323232",
"> 	c #FFCB00",
", 	c #FFED00",
"' 	c #FFF000",
") 	c #FFEF00",
"! 	c #FFDC00",
"~ 	c #FFB700",
"{ 	c #323333",
"] 	c #353535",
"^ 	c #4C4D4E",
"/ 	c #727477",
"( 	c #7E8083",
"_ 	c #7C7E81",
": 	c #5D5E60",
"< 	c #3A3A3B",
"[ 	c #FFD300",
"} 	c #FFF100",
"| 	c #FFE800",
"1 	c #F2AC03",
"2 	c #56462F",
"3 	c #343434",
"4 	c #686A6C",
"5 	c #7F8184",
"6 	c #808285",
"7 	c #797B7D",
"8 	c #3F4040",
"9 	c #FFB900",
"0 	c #DDD10A",
"a 	c #C4BA18",
"b 	c #998625",
"c 	c #606164",
"d 	c #818386",
"e 	c #76787A",
"f 	c #363637",
"g 	c #FFCC00",
"h 	c #E3D70F",
"i 	c #696529",
"j 	c #323233",
"k 	c #3D3D3E",
"l 	c #7B7D80",
"m 	c #555657",
"n 	c #D0C511",
"o 	c #3F3E32",
"p 	c #4B4C4D",
"q 	c #67696B",
"r 	c #6C6E70",
"s 	c #636567",
"t 	c #F4E706",
"u 	c #54512F",
"v 	c #6F7173",
"w 	c #FFD600",
"x 	c #AFA61A",
"y 	c #313134",
"z 	c #646668",
"A 	c #797B7E",
"B 	c #FCAF01",
"C 	c #C88F16",
"D 	c #423E31",
"E 	c #7A7C7F",
"F 	c #747578",
"G 	c #474849",
"H 	c #6C512F",
"I 	c #333332",
"J 	c #4C4D4D",
"K 	c #444444",
"L 	c #454546",
"M 	c #77797B",
"N 	c #707274",
"O 	c #696B6D",
"P 	c #7F8285",
"Q 	c #B59367",
"R 	c #BA9563",
"S 	c #838381",
"T 	c #77787B",
"U 	c #747577",
"V 	c #9F8C6F",
"W 	c #FEB004",
"X 	c #D5A13A",
"Y 	c #737477",
"Z 	c #D8A141",
"` 	c #F9AF0B",
" .	c #968979",
"..	c #48494A",
"+.	c #3A3A3A",
"@.	c #7D7F82",
"#.	c #968972",
"$.	c #DAA13F",
"%.	c #7B7F83",
"&.	c #525354",
"*.	c #353536",
"=.	c #393735",
"-.	c #D69719",
";.	c #FEB104",
">.	c #EAA313",
",.	c #313535",
"'.	c #5C492F",
").	c #F1A804",
"!.	c #FBAF01",
"~.	c #8A6626",
"{.	c #D1D2D3",
"                                                                ",
"                                                                ",
"                    . .                                         ",
"          . .       . .       .                                 ",
"          . .       . .     . .                                 ",
"            .               .                                   ",
"    .             . . . .             + + + +                   ",
"    . .       . . @ # $ % .       + + & * = - ; +               ",
"      .     . @ > , ' ) ! ~ .   { ] ^ / ( ( _ : < +             ",
"          . . [ } } } } } | 1 2 3 4 5 6 6 6 6 6 7 8 +           ",
"          . 9 ' } } } } 0 a b + c d 6 6 6 6 6 6 6 e f +         ",
"  . .     . g } } } h i j ; ; k l 6 6 6 6 6 6 6 6 d m +         ",
"  . .     . g } } n o ] p q r s 6 6 6 6 6 6 6 6 6 6 e ;         ",
"          . 9 } t u ] v 6 6 6 6 6 6 6 6 6 6 6 6 6 6 l ] +       ",
"          . . w x y z 6 6 6 6 6 6 6 6 6 6 6 6 6 6 6 A & + +     ",
"      .     B C D ] E 6 6 6 6 6 6 6 6 6 6 6 6 6 6 6 6 F G + +   ",
"    . .     H I f J d 6 6 6 6 6 6 6 6 6 6 6 6 6 6 6 6 6 ( K +   ",
"    .       + L M d 6 6 6 6 6 6 6 6 6 6 6 6 6 6 6 6 6 6 6 N 3   ",
"          + ; O 6 6 6 6 6 6 6 6 6 6 6 6 6 P Q R S 6 6 6 6 T f + ",
"          + ; U 6 6 6 6 6 6 6 6 6 6 6 6 6 V W X P 6 6 6 6 Y 3   ",
"            + s 6 6 6 6 6 6 6 6 6 6 6 6 6 Z `  .6 6 6 6 5 ..+   ",
"            + +.r @.5 5 5 5 5 5 5 5 5 5 #.. $.%.5 5 ( F &.+ +   ",
"              + 3 ] *.*.*.*.*.*.*.*.*.=.-.. ;.>.,.*.] 3 + +     ",
"                + + + + + + + + + + + '.).!.. ~.j + + +         ",
"                                          . .                   ",
"                                        . . .                   ",
"                          {.{.{.        . . . .                 ",
"                          {.{.{.          . .                   ",
"                        {.{.{.{.{.        . .                   ",
"                          {.{.{.        . .                     ",
"                          {.  {.        . .                     ",
"                                                                "};
