/* XPM */
static char * 395_xpm[] = {
"32 32 99 2",
"  	c None",
". 	c #333333",
"+ 	c #323232",
"@ 	c #3D3E3E",
"# 	c #4F5051",
"$ 	c #595A5C",
"% 	c #5B5C5D",
"& 	c #525355",
"* 	c #424344",
"= 	c #343535",
"- 	c #5A5C5D",
"; 	c #77797B",
"> 	c #7F8184",
", 	c #808285",
"' 	c #797B7E",
") 	c #666769",
"! 	c #383939",
"~ 	c #343434",
"{ 	c #616365",
"] 	c #6C6E70",
"^ 	c #39393A",
"/ 	c #565759",
"( 	c #67696B",
"_ 	c #343433",
": 	c #333332",
"< 	c #75777A",
"[ 	c #7A7C7F",
"} 	c #454546",
"| 	c #353535",
"1 	c #4C4D4E",
"2 	c #616364",
"3 	c #626466",
"4 	c #5D5E60",
"5 	c #7D7F82",
"6 	c #565758",
"7 	c #444445",
"8 	c #6F7173",
"9 	c #5F6062",
"0 	c #3E3E3F",
"a 	c #747578",
"b 	c #66686A",
"c 	c #474849",
"d 	c #707174",
"e 	c #7C7E81",
"f 	c #636567",
"g 	c #585A5B",
"h 	c #5B5D5E",
"i 	c #4B4C4D",
"j 	c #7A7B7E",
"k 	c #757779",
"l 	c #3A3A3A",
"m 	c #363636",
"n 	c #737578",
"o 	c #A88F6D",
"p 	c #B69465",
"q 	c #908877",
"r 	c #787A7D",
"s 	c #404141",
"t 	c #3E3E3E",
"u 	c #77797C",
"v 	c #908876",
"w 	c #FAAF05",
"x 	c #F7AE05",
"y 	c #8C867C",
"z 	c #76787A",
"A 	c #3B3B3C",
"B 	c #383838",
"C 	c #737477",
"D 	c #808284",
"E 	c #D29F48",
"F 	c #FFB100",
"G 	c #C19955",
"H 	c #646667",
"I 	c #333232",
"J 	c #4E4E50",
"K 	c #7E8083",
"L 	c #998A78",
"M 	c #F4AD1A",
"N 	c #F2AC21",
"O 	c #948979",
"P 	c #6A6C6E",
"Q 	c #68696B",
"R 	c #6E6F72",
"S 	c #C2954B",
"T 	c #E2A53B",
"U 	c #AB8D6F",
"V 	c #767471",
"W 	c #323231",
"X 	c #313131",
"Y 	c #4F432C",
"Z 	c #F6AB00",
"` 	c #ECA500",
" .	c #453C2F",
"..	c #2E3133",
"+.	c #AB7C1D",
"@.	c #F5AB03",
"#.	c #FDB001",
"$.	c #B5811B",
"%.	c #D1D2D3",
"                                                                ",
"                                                                ",
"                                                                ",
"                              . . . . . . . .                   ",
"                            . + @ # $ % & * . . .               ",
"                          . = - ; > , , , ' ) ! . .             ",
"                        . ~ { > , , , , , , , ] ^ .             ",
"                    . . + / > , , , , , , , , , ( _ .           ",
"              . . : + + ^ < , , , , , , , , , , [ } .           ",
"            . . | 1 2 3 4 5 , , , , , , , , , , , 6 .           ",
"          . . 7 8 , , , , , , , , , , , , , , , , 9 . .         ",
"          . 0 a , , , , , , , , , , , , , , , , , 9 . .         ",
"        . . - , , , , , , , , , , , , , , , , , , b c | .       ",
"      . . . d , , , , , , , , , , , , , , , , , , , e f ~ .     ",
"    . . 7 g e , , , , , , , , , , , , , , , , , , , , , h . .   ",
"  . . i j , , , , , , , , , , , , , , , , , , , , , , , k l .   ",
"  . m n , , , , , , , , , , , , , , , , o p q , , , , , r s .   ",
"  . t u , , , , , , , , , , , , , , , v w x y , , , , , z A .   ",
"  . B C , , , , , , , , , , , , , , D E F G , , , , , , H I .   ",
"  . . J K , , , , , , , , , , , , , L M N O , , , , , P ! .     ",
"    . . } Q R R R R R R R R R R R R S F T U V R R P & | . .     ",
"      . . + W W W W W W W W W W X Y Z F F `  .X W + + .         ",
"          . . . . . . . . . . . ..+.@.#.F $.. . . .             ",
"                                      F F                       ",
"                                    F F F                       ",
"                  %.%.  %.          F F F F                     ",
"                    %.%.%.          F F F                       ",
"                %.%.%.%.%.%.          F F                       ",
"                  %.%.%.%.          F F F                       ",
"                  %.%.%.%.          F F                         ",
"                        %.          F                           ",
"                                                                "};
